<?xml version="1.0" encoding="UTF-8" ?>
<svg xmlns="http://www.w3.org/2000/svg" version="1.1" width="100" height="100">
	<!-- Page with folded corner. -->
	<polygon points="25,90 75,90 75,30 55,10 25,10" fill="white" stroke="gray" stroke-width="2" />
	<polyline points="55,10 55,30 75,30" fill="none" stroke="gray" stroke-width="2" />

	<!-- Layers. -->
	<path d="M30,75 a20,10 0 0,0 40,0 M30,70 a20,10 0 0,0 40,0 M30,65 a20,10 0 0,0 40,0 M30,60 a20,10 0 0,0 40,0 M30,55 a20,10 0 0,0 40,0 M30,50 a20,10 0 0,0 40,0 M30,45 a20,10 0 0,0 40,0 a20,10 0 0,0 -40,0 M30,45 L30,75 M70,45 L70,75" fill="none" stroke="darkred" stroke-linecap="round" />

	<text x="50" y="45" fill="darkred" text-anchor="middle" dominant-baseline="middle" font-family="verdana" font-size="13">X3G</text>
</svg>