<?xml version="1.0" encoding="UTF-8" ?>
<svg xmlns="http://www.w3.org/2000/svg" version="1.1" width="100" height="100">
	<!-- Outline of layers. -->
	<ellipse cx="50" cy="75" rx="42" ry="22" fill="lightsalmon" />
	<ellipse cx="50" cy="65" rx="42" ry="22" fill="lightsalmon" />
	<ellipse cx="50" cy="61" rx="42" ry="22" fill="lightsalmon" />
	<ellipse cx="50" cy="51" rx="42" ry="22" fill="lightsalmon" />
	<ellipse cx="50" cy="47" rx="42" ry="22" fill="lightsalmon" />
	<ellipse cx="50" cy="37" rx="42" ry="22" fill="lightsalmon" />
	<ellipse cx="50" cy="33" rx="42" ry="22" fill="lightsalmon" />
	<ellipse cx="50" cy="23" rx="42" ry="22" fill="lightsalmon" />

	<!-- Layers. -->
	<ellipse cx="50" cy="75" rx="40" ry="20" fill="lightsalmon" />
	<ellipse cx="50" cy="65" rx="40" ry="20" fill="white" />
	<ellipse cx="50" cy="61" rx="40" ry="20" fill="lightsalmon" />
	<ellipse cx="50" cy="51" rx="40" ry="20" fill="white" />
	<ellipse cx="50" cy="47" rx="40" ry="20" fill="lightsalmon" />
	<ellipse cx="50" cy="37" rx="40" ry="20" fill="white" />
	<ellipse cx="50" cy="33" rx="40" ry="20" fill="lightsalmon" />
	<ellipse cx="50" cy="23" rx="40" ry="20" fill="white" />

	<text x="50" y="32" fill="darkred" text-anchor="middle" dominant-baseline="middle" font-family="verdana" font-size="26">X3G</text>
</svg>